<?xml version="1.0" encoding="UTF-8"?>
<svg xmlns="http://www.w3.org/2000/svg" width="1100" height="210" viewBox="0 0 1100 210" role="img" aria-label="Career achievements unlocked">
  <defs>
    <linearGradient id="achBg" x1="0" y1="0" x2="1100" y2="210" gradientUnits="userSpaceOnUse">
      <stop stop-color="#14061c"/>
      <stop offset="1" stop-color="#0b1024"/>
    </linearGradient>
  </defs>
  <rect width="1100" height="210" fill="url(#achBg)"/>
  <rect x="14" y="14" width="1072" height="182" fill="none" stroke="#ffd166" stroke-width="1.6"/>
  <text x="36" y="44" fill="#ffd166" font-family="Consolas, Cascadia Mono, ui-monospace, monospace" font-size="13" font-weight="700" letter-spacing="3">ACHIEVEMENTS UNLOCKED</text>
  <text x="1064" y="44" fill="#ff3d8f" font-family="Consolas, Cascadia Mono, ui-monospace, monospace" font-size="12" letter-spacing="2" text-anchor="end">REAL CAREER DROPS</text>
  <g font-family="Segoe UI, system-ui, sans-serif" text-anchor="middle">
    <rect x="32" y="64" width="164" height="110" rx="8" fill="#1a0b22" stroke="#ff3d8f"/>
    <text x="114" y="102" fill="#ff3d8f" font-size="20" font-weight="700">14+</text>
    <text x="114" y="128" fill="#fff6fb" font-size="13" font-weight="600">YEARS</text>
    <text x="114" y="150" fill="#e8d7ff" font-size="11">Senior delivery</text>
    <rect x="208" y="64" width="164" height="110" rx="8" fill="#1a0b22" stroke="#4de8ff"/>
    <text x="290" y="102" fill="#4de8ff" font-size="20" font-weight="700">-30%</text>
    <text x="290" y="128" fill="#fff6fb" font-size="13" font-weight="600">ERRORS</text>
    <text x="290" y="150" fill="#e8d7ff" font-size="11">FEMSA ops</text>
    <rect x="384" y="64" width="164" height="110" rx="8" fill="#1a0b22" stroke="#7cffb2"/>
    <text x="466" y="102" fill="#7cffb2" font-size="20" font-weight="700">+30%</text>
    <text x="466" y="128" fill="#fff6fb" font-size="13" font-weight="600">SALES</text>
    <text x="466" y="150" fill="#e8d7ff" font-size="11">Arabela e-com</text>
    <rect x="560" y="64" width="164" height="110" rx="8" fill="#1a0b22" stroke="#ffd166"/>
    <text x="642" y="102" fill="#ffd166" font-size="20" font-weight="700">60%</text>
    <text x="642" y="128" fill="#fff6fb" font-size="13" font-weight="600">FASTER</text>
    <text x="642" y="150" fill="#e8d7ff" font-size="11">Reina Madre</text>
    <rect x="736" y="64" width="164" height="110" rx="8" fill="#1a0b22" stroke="#b388ff"/>
    <text x="818" y="102" fill="#b388ff" font-size="20" font-weight="700">20k+</text>
    <text x="818" y="128" fill="#fff6fb" font-size="13" font-weight="600">PATIENTS</text>
    <text x="818" y="150" fill="#e8d7ff" font-size="11">Clinic platform</text>
    <rect x="912" y="64" width="156" height="110" rx="8" fill="#1a0b22" stroke="#ff8a4c"/>
    <text x="990" y="102" fill="#ff8a4c" font-size="18" font-weight="700">LIVE</text>
    <text x="990" y="128" fill="#fff6fb" font-size="13" font-weight="600">CLUTCHMX</text>
    <text x="990" y="150" fill="#e8d7ff" font-size="11">Sports-tech</text>
  </g>
</svg>
